{"title":"Jack the Giant Slayer 2013 720p BluRay QEBSx AAC20 MP4-FASM","uid":8838359,"size":2251758224,"categoryP":"video","categoryS":"hd___movies","magnet":"?xt=urn:btih:8dda5cec69c2d3a069d0fc15e57d14e25d21004b&amp;dn=Jack+the+Giant+Slayer+2013+720p+BluRay+QEBSx+AAC20+MP4-FASM&amp;tr=udp%3A%2F%2Ftracker.openbittorrent.com%3A80&amp;tr=udp%3A%2F%2Fopen.demonii.com%3A1337&amp;tr=udp%3A%2F%2Ftracker.coppersurfer.tk%3A6969&amp;tr=udp%3A%2F%2Fexodus.desync.com%3A6969","seeders":7,"leechers":1,"uploader":"SaM","files":10,"time":1377185007,"description":" &lt;a href=&quot;http://imdb.com/title/tt1351685/&quot; rel=&quot;nofollow&quot; target=&quot;_NEW&quot;&gt;http://imdb.com/title/tt1351685/&lt;/a&gt;\n\nPlot: The ancient war between humans and a race of giants is reignited when Jack,\n a young farmhand fighting for a kingdom and the love of a princess, opens a \ngateway between the two worlds.\n\n\n\nSUBTITLES:\nENGLISH, POLISH others from other BluRay releases on subscene.com\n\nGeneral\nComplete name                  : Jack_the_Giant_Slayer_2013_720p_BluRay_QEBSx_AAC20_MP4-FASM.mp4\nFormat                         : MPEG-4\nFormat profile                 : Base Media\nCodec ID                       : isom\nFile size                      : 2.08 GiB\nDuration                       : 1h 54mn\nOverall bit rate mode          : Variable\nOverall bit rate               : 2 607 Kbps\nEncoded date                   : UTC 2013-08-04 21:55:57\nTagged date                    : UTC 2013-08-04 21:55:57\n\nVideo\nID                             : 1\nFormat                         : AVC\nFormat/Info                    : Advanced Video Codec\nFormat profile                 : &lt;a class=&quot;__cf_email__&quot; href=&quot;/cdn-cgi/l/email-protection&quot; data-cfemail=&quot;276f4e404f676b140916&quot;&gt;[email&amp;#160;protected]&lt;/a&gt;&lt;script cf-hash='f9e31' type=&quot;text/javascript&quot;&gt;\n/* &lt;![CDATA[ */!function(){try{var t=&quot;currentScript&quot;in document?document.currentScript:function(){for(var t=document.getElementsByTagName(&quot;script&quot;),e=t.length;e--;)if(t[e].getAttribute(&quot;cf-hash&quot;))return t[e]}();if(t&amp;&amp;t.previousSibling){var e,r,n,i,c=t.previousSibling,a=c.getAttribute(&quot;data-cfemail&quot;);if(a){for(e=&quot;&quot;,r=parseInt(a.substr(0,2),16),n=2;a.length-n;n+=2)i=parseInt(a.substr(n,2),16)^r,e+=String.fromCharCode(i);e=document.createTextNode(e),c.parentNode.replaceChild(e,c)}}}catch(u){}}();/* ]]&gt; */&lt;/script&gt;\nFormat settings, CABAC         : Yes\nFormat settings, ReFrames      : 5 frames\nCodec ID                       : avc1\nCodec ID/Info                  : Advanced Video Coding\nDuration                       : 1h 54mn\nBit rate                       : 2 452 Kbps\nMaximum bit rate               : 7 885 Kbps\nWidth                          : 1 280 pixels\nHeight                         : 528 pixels\nDisplay aspect ratio           : 2.40:1\nFrame rate mode                : Constant\nFrame rate                     : 23.976 fps\nColor space                    : YUV\nChroma subsampling             : 4:2:0\nBit depth                      : 8 bits\nScan type                      : Progressive\nBits/(Pixel*Frame)             : 0.151\nStream size                    : 1.96 GiB (94%)\nWriting library                : FASM Quality Enhancer Bitrate Squeezer X.2 (c)2013 Fachman\nEncoded date                   : UTC 2013-08-04 21:55:57\nTagged date                    : UTC 2013-08-04 21:56:41\nColor primaries                : BT.709\nTransfer characteristics       : BT.709\nMatrix coefficients            : BT.709\n\nAudio\nID                             : 2\nFormat                         : AAC\nFormat/Info                    : Advanced Audio Codec\nFormat profile                 : LC\nCodec ID                       : 40\nDuration                       : 1h 54mn\nBit rate mode                  : Variable\nBit rate                       : 151 Kbps\nMaximum bit rate               : 203 Kbps\nChannel(s)                     : 2 channels\nChannel positions              : Front: L R\nSampling rate                  : 48.0 KHz\nCompression mode               : Lossy\nStream size                    : 123 MiB (6%)\nLanguage                       : English\nEncoded date                   : UTC 2013-08-04 21:56:34\nTagged date                    : UTC 2013-08-04 21:56:41\n\nMenu\n00:00:00.000                   : : Chapter 1\n00:10:21.371                   : : Chapter 2\n00:19:23.746                   : : Chapter 3\n00:29:52.207                   : : Chapter 4\n00:38:55.375                   : : Chapter 5\n00:49:24.879                   : : Chapter 6\n00:59:35.489                   : : Chapter 7\n01:09:26.287                   : : Chapter 8\n01:20:39.168                   : : Chapter 9\n01:29:51.303                   : : Chapter 10\n01:39:02.812                   : : Chapter 11\n01:45:57.726                   : : Chapter 12\n\nSCREENSHOTS COMPARISION TO OTHERS(usually in worst case rare scenarios):\n &lt;a href=&quot;\nhttp://screenshotcomparison.com/comparison/36785&quot; rel=&quot;nofollow&quot; target=&quot;_NEW&quot;&gt;\nhttp://screenshotcomparison.com/comparison/36785&lt;/a&gt;\n &lt;a href=&quot;\nhttp://img89.imageshack.us/img89/3482/khn2.png&quot; rel=&quot;nofollow&quot; target=&quot;_NEW&quot;&gt;\nhttp://img89.imageshack.us/img89/3482/khn2.png&lt;/a&gt;\n &lt;a href=&quot;\nhttp://img197.imageshack.us/img197/4702/f96z.png&quot; rel=&quot;nofollow&quot; target=&quot;_NEW&quot;&gt;\nhttp://img197.imageshack.us/img197/4702/f96z.png&lt;/a&gt;\n &lt;a href=&quot;\nhttp://img59.imageshack.us/img59/3894/l6w1.png&quot; rel=&quot;nofollow&quot; target=&quot;_NEW&quot;&gt;\nhttp://img59.imageshack.us/img59/3894/l6w1.png&lt;/a&gt;\n","torrent":{"xt":"urn:btih:8dda5cec69c2d3a069d0fc15e57d14e25d21004b","amp;dn":"Jack+the+Giant+Slayer+2013+720p+BluRay+QEBSx+AAC20+MP4-FASM","amp;tr":["udp%3A%2F%2Ftracker.openbittorrent.com%3A80","udp%3A%2F%2Fopen.demonii.com%3A1337","udp%3A%2F%2Ftracker.coppersurfer.tk%3A6969","udp%3A%2F%2Fexodus.desync.com%3A6969"],"infoHash":"8dda5cec69c2d3a069d0fc15e57d14e25d21004b","infoHashBuffer":{"type":"Buffer","data":[141,218,92,236,105,194,211,160,105,208,252,21,229,125,20,226,93,33,0,75]},"announce":[],"urlList":[]}}